<svg xmlns="http://www.w3.org/2000/svg" viewBox="0 0 64 64" role="img" aria-label="The Vault Room">
  <rect width="64" height="64" rx="8" fill="#071014"/>
  <path d="M32 6 39 25 58 32 39 39 32 58 25 39 6 32 25 25Z" fill="#d4af37"/>
  <path d="M22 18h20a4 4 0 0 1 4 4v28a4 4 0 0 1-4 4H22a4 4 0 0 1-4-4V22a4 4 0 0 1 4-4Z" fill="#f2e9d6"/>
  <path d="M23 25h18v7H23Zm0 12h18v12H23Z" fill="#081d2a"/>
  <path d="M26 44 32 37l6 7" fill="none" stroke="#0fa3a6" stroke-width="3" stroke-linecap="round" stroke-linejoin="round"/>
</svg>
